<?xml version="1.0" encoding="UTF-8"?>
<svg width="16px" height="16px" viewBox="0 0 16 16" version="1.1" xmlns="http://www.w3.org/2000/svg" xmlns:xlink="http://www.w3.org/1999/xlink">
    <title>4817928D-F719-49C5-A96D-76254BE9CE5E</title>
    <g id="Pages" stroke="none" stroke-width="1" fill="none" fill-rule="evenodd">
        <g id="StoragebyOwner-|-Home" transform="translate(-1060.000000, -4982.000000)" fill="#314259">
            <g id="social_icons" transform="translate(1020.001385, 4982.000000)">
                <g id="icon_fb" transform="translate(39.998615, 0.000000)">
                    <path d="M16,8.04891445 C16,3.60361847 12.4182812,0 8,0 C3.58171875,0 0,3.60361847 0,8.04891445 C0,12.0663603 2.92548437,15.3962214 6.75,16 L6.75,10.3755538 L4.71875,10.3755538 L4.71875,8.04891445 L6.75,8.04891445 L6.75,6.27563798 C6.75,4.2583788 7.94434375,3.14410721 9.77171875,3.14410721 C10.6469844,3.14410721 11.5625,3.30131257 11.5625,3.30131257 L11.5625,5.28210011 L10.5537187,5.28210011 C9.55992188,5.28210011 9.25,5.9025425 9.25,6.53906701 L9.25,8.04891445 L11.46875,8.04891445 L11.1140625,10.3755538 L9.25,10.3755538 L9.25,16 C13.0745156,15.3962214 16,12.0663603 16,8.04891445" id="icon-facebook"></path>
                </g>
            </g>
        </g>
    </g>
</svg>