<?xml version="1.0" encoding="UTF-8"?>
<svg width="45px" height="45px" viewBox="0 0 45 45" version="1.1" xmlns="http://www.w3.org/2000/svg" xmlns:xlink="http://www.w3.org/1999/xlink">
    <title>E665B2D1-690A-4CA8-B6C0-09DF58D3333C</title>
    <g id="Pages" stroke="none" stroke-width="1" fill="none" fill-rule="evenodd">
        <g id="StoragebyOwner-|-Home" transform="translate(-135.000000, -1784.000000)" fill-rule="nonzero">
            <g id="icon-medium-safe@2x-copy" transform="translate(135.000000, 1784.000000)">
                <circle id="Oval" fill="#2E4057" cx="22.5" cy="22.5" r="22.5"></circle>
                <path d="M34,30.25 L32.5,30.25 L32.5,32.5 L12.5,32.5 L12.5,12.5 L32.5,12.5 L32.5,14.25 L34,14.25 L34,11.25 C34,11.1119288 33.8880712,11 33.75,11 L11.25,11 C11.1119288,11 11,11.1119288 11,11.25 L11,33.75 C11,33.8880712 11.1119288,34 11.25,34 L33.75,34 C33.8880712,34 34,33.8880712 34,33.75 L34,30.25 Z M19.7319732,25.0184322 L21.9565467,22.7716129 L19.6072927,20.3988664 C19.1423364,21.0187061 18.8663425,21.791625 18.8663425,22.6300675 C18.8663425,23.5409447 19.1920837,24.3744879 19.7319732,25.0184322 Z M20.4730172,25.69128 C21.0570998,26.0915363 21.761709,26.3252793 22.5200176,26.3252793 C23.3503131,26.3252793 24.1162297,26.0450511 24.7300446,25.5728458 L22.6601617,23.4822641 L20.4730172,25.69128 Z M24.8852861,19.8135862 C24.2477571,19.2654621 23.4218637,18.9348556 22.5200176,18.9348556 C21.6897222,18.9348556 20.9238055,19.2150838 20.3099907,19.6872891 L22.6601617,22.0609618 L24.8852861,19.8135862 Z M25.549636,20.563895 L23.3637766,22.7716129 L25.4327426,24.8612685 C25.8976989,24.2414288 26.1736928,23.4685099 26.1736928,22.6300675 C26.1736928,21.8644969 25.9435891,21.1535551 25.549636,20.563895 Z M11.25,10 L33.75,10 C34.4403559,10 35,10.5596441 35,11.25 L35,33.75 C35,34.4403559 34.4403559,35 33.75,35 L11.25,35 C10.5596441,35 10,34.4403559 10,33.75 L10,11.25 C10,10.5596441 10.5596441,10 11.25,10 Z M22.5200176,27.3252793 C19.948744,27.3252793 17.8663425,25.2220538 17.8663425,22.6300675 C17.8663425,20.0380811 19.948744,17.9348556 22.5200176,17.9348556 C25.0912912,17.9348556 27.1736928,20.0380811 27.1736928,22.6300675 C27.1736928,25.2220538 25.0912912,27.3252793 22.5200176,27.3252793 Z M34,15.25 L31.5,15.25 L31.5,13.5 L13.5,13.5 L13.5,31.5 L31.5,31.5 L31.5,29.25 L34,29.25 L34,15.25 Z" id="Combined-Shape" fill="#CAFFB9"></path>
            </g>
        </g>
    </g>
</svg>