<?xml version="1.0" encoding="UTF-8"?>
<svg width="70px" height="70px" viewBox="0 0 70 70" version="1.1" xmlns="http://www.w3.org/2000/svg" xmlns:xlink="http://www.w3.org/1999/xlink">
    <title>BCFD1989-6693-468E-B87A-3212C71665C2</title>
    <g id="Pages" stroke="none" stroke-width="1" fill="none" fill-rule="evenodd">
        <g id="StoragebyOwner-|-Home" transform="translate(-735.000000, -2603.000000)" fill-rule="nonzero">
            <g id="icon-large-realestate@2x" transform="translate(735.000000, 2603.000000)">
                <circle id="icon" fill="#48A9A6" cx="35" cy="35" r="35"></circle>
                <path d="M26.0879,22.51955 L26.0879,20.375 C26.0879,20.1669913 25.9209088,20 25.7129,20 L22.6176875,20 C22.4096787,20 22.2426875,20.1669913 22.2426875,20.375 L22.2426875,22.51955 L20.375,22.51955 C20.1669912,22.51955 20,22.6865413 20,22.89455 L20,25.941425 C20,26.1494338 20.1669912,26.316425 20.375,26.316425 L22.2426875,26.316425 L22.2426875,49.624925 C22.2426875,49.8329338 22.4096787,49.999925 22.6176875,49.999925 L25.7129,49.999925 C25.9209088,49.999925 26.0879,49.8329338 26.0879,49.624925 L26.0879,26.317925 L29.28125,26.317925 L29.28125,28.093325 L28.296875,28.0918603 C28.0888662,28.0918603 27.921875,28.2588515 27.921875,28.4668603 L27.921875,46.3131103 C27.921875,46.521119 28.0888662,46.6881103 28.296875,46.6881103 L47.5625,46.6881103 C47.7705087,46.6881103 47.9375,46.521119 47.9375,46.3131103 L47.9375,28.4668603 C47.9375,28.2588515 47.7705087,28.0918603 47.5625,28.0918603 L46.3144625,28.0918603 L46.3144625,26.3164603 L48.1015625,26.317925 C49.147475,26.317925 50,25.4654 50,24.4194875 C50,23.3721125 49.147475,22.5195875 48.1015625,22.5195875 L26.0879,22.51955 Z M23.288,21.044 L25.028,21.044 L25.028,22.244 L23.288,22.244 L23.288,21.044 Z M25.028,48.944 L23.288,48.944 L23.288,26.612 L25.028,26.612 L25.028,48.944 Z M46.892,45.644 L28.976,45.644 L28.976,29.144 L46.892,29.144 L46.892,45.644 Z M45.2705576,28.09175 L30.332,28.09175 L30.332,26.31635 L45.272,26.31635 L45.272,28.09175 L45.2705576,28.09175 Z M47.8197475,25.268 L21.044,25.268 L21.044,23.576 L47.8197475,23.576 C48.4392336,23.576 48.944,23.9558367 48.944,24.422 C48.944,24.8881633 48.4392336,25.268 47.8197475,25.268 Z" id="Shape" fill="#CAFFB9"></path>
            </g>
        </g>
    </g>
</svg>