<?xml version="1.0" encoding="UTF-8"?>
<svg width="70px" height="70px" viewBox="0 0 70 70" version="1.1" xmlns="http://www.w3.org/2000/svg" xmlns:xlink="http://www.w3.org/1999/xlink">
    <title>035EC142-2139-4D47-B9E6-FCCF36FF7C22</title>
    <g id="Pages" stroke="none" stroke-width="1" fill="none" fill-rule="evenodd">
        <g id="StoragebyOwner-|-Home" transform="translate(-735.000000, -1094.000000)" fill-rule="nonzero">
            <g id="icon-large-package@2x" transform="translate(735.000000, 1094.000000)">
                <circle id="icon" fill="#4D9078" cx="35" cy="35" r="35"></circle>
                <path d="M29.2740508,29.1661608 L34.603583,31.3951298 C34.64105,31.4107996 34.6770792,31.4288563 34.7115299,31.4490858 C34.7460258,31.4292061 34.782076,31.4114951 34.8195405,31.3961639 L47.3159047,26.2823818 L41.8973283,24.1135234 L29.2740508,29.1661608 Z M27.6776664,28.4985054 L40.2521506,23.4653982 L34.6963475,21.2416129 L22.2357973,26.2225538 L27.6776664,28.4985054 Z M20.2144063,26.0631817 C20.2202388,26.0455585 20.2266418,26.0280021 20.2336245,26.0105338 C20.3260982,25.7791974 20.5093926,25.595903 20.740729,25.5034293 L34.3457653,20.0649952 C34.4582495,20.0200311 34.5774673,19.9983974 34.6964301,20 C34.8155308,19.9983954 34.9348846,20.0200814 35.0474785,20.0651486 L48.6346129,25.5035827 C48.77151,25.5583777 48.8915671,25.6449828 48.9859136,25.7545274 C49.4038568,25.8346101 49.7200952,26.2090057 49.7200952,26.6587783 L49.7200952,43.4885535 C49.7200952,43.8644914 49.4959838,44.2026153 49.1540698,44.3425339 L35.4906509,49.9338999 C35.3839515,49.9775636 35.2700539,50 35.1550957,50 C34.9925761,50 34.8400999,49.9561162 34.7084245,49.8793265 C34.576787,49.9561168 34.4243608,50 34.2618961,50 C34.1447107,50 34.0286495,49.9766706 33.9202092,49.9313176 L20.5597309,44.343568 C20.2211573,44.2019664 20,43.8654583 20,43.4918936 L20,26.6590545 C20,26.4317786 20.0806857,26.2237437 20.2144063,26.0631817 Z M21.2130651,27.3818467 L21.2130651,43.1408746 L33.9502488,48.4836686 L33.9502488,32.4630025 L27.4895602,29.8804273 L27.4766031,29.8856136 L21.2130651,27.3818467 Z M48.5070301,27.2439499 L35.4665802,32.4635662 L35.4665802,48.4836686 L48.5070301,43.1338956 L48.5070301,27.2439499 Z" id="Combined-Shape" fill="#CAFFB9"></path>
            </g>
        </g>
    </g>
</svg>