<?xml version="1.0" encoding="UTF-8"?>
<svg width="45px" height="45px" viewBox="0 0 45 45" version="1.1" xmlns="http://www.w3.org/2000/svg" xmlns:xlink="http://www.w3.org/1999/xlink">
    <title>824D93CB-1F67-4637-B0C0-DD02AB1C0493</title>
    <g id="Pages" stroke="none" stroke-width="1" fill="none" fill-rule="evenodd">
        <g id="StoragebyOwner-|-Home" transform="translate(-135.000000, -578.000000)" fill-rule="nonzero">
            <g id="icon-medium-convenient@2x" transform="translate(135.000000, 578.000000)">
                <circle id="Oval" fill="#4CB964" cx="22.5" cy="22.5" r="22.5"></circle>
                <path d="M32.8679117,32.8849433 L30.348091,34.8393252 L26.7134421,30.2210205 L23.3332472,35.2783119 L18.5338938,17.2473923 L35,26.2343994 L29.2347014,28.2684666 L32.8679117,32.8849433 Z M27.5191039,27.7706325 L32.4535462,26.0297015 L20.1624175,19.321348 L23.7467695,32.7875708 L26.6447749,28.451709 L30.5267449,33.384268 L31.4025125,32.7050196 L27.5191039,27.7706325 Z M10,18.0145792 L10,16.9743078 L15.2253919,16.9743078 L15.2253919,18.0145792 L10,18.0145792 Z M12.8272966,11.1155583 L13.6347003,10.4596133 L16.923146,14.5073664 L16.1157422,15.1633113 L12.8272966,11.1155583 Z M20.0400769,9 L21.0535195,9.23473114 L19.8780621,14.309723 L18.8646195,14.0749918 L20.0400769,9 Z M26.1568589,13.2861749 L26.6116908,14.2217456 L21.9151397,16.5049951 L21.4603078,15.5694244 L26.1568589,13.2861749 Z M13.6347003,24.5292736 L12.8272966,23.8733287 L16.1157422,19.8255756 L16.923146,20.4815206 L13.6347003,24.5292736 Z" id="Combined-Shape" fill="#CAFFB9"></path>
            </g>
        </g>
    </g>
</svg>