<?xml version="1.0" encoding="UTF-8"?>
<svg width="16px" height="17px" viewBox="0 0 16 17" version="1.1" xmlns="http://www.w3.org/2000/svg" xmlns:xlink="http://www.w3.org/1999/xlink">
    <title>2C62CE5F-3300-4866-9A72-86F1AAAA7BB0</title>
    <defs>
        <linearGradient x1="50%" y1="0%" x2="50%" y2="100%" id="linearGradient-1">
            <stop stop-color="#83DD9D" offset="0%"></stop>
            <stop stop-color="#4CB964" offset="100%"></stop>
        </linearGradient>
    </defs>
    <g id="Pages" stroke="none" stroke-width="1" fill="none" fill-rule="evenodd">
        <g id="StoragebyOwner-|-Home" transform="translate(-1345.000000, -38.000000)" fill="url(#linearGradient-1)" fill-rule="nonzero">
            <g id="icon-login@2x" transform="translate(1345.000000, 38.000000)">
                <path d="M9.99348042,1.72747764 C9.76436442,1.73758696 9.54007542,1.65716517 9.37467442,1.50495599 C9.20332142,1.3505551 9.10142142,1.1337413 9.09125942,0.903428893 C9.08115042,0.674313043 9.16157242,0.450023733 9.31378142,0.284623043 C9.46818242,0.113269963 9.68499542,0.0113694133 9.91531042,0.00120824327 C9.95439542,-0.000310526731 9.95439542,-0.000310526731 9.97144042,0.000724163269 L14.3349204,0.000724163269 C14.8120514,0.000724163269 15.1985444,0.387213063 15.1985444,0.864347543 L15.1985444,16.1365294 C15.1985444,16.6136598 14.8120554,17.0001916 14.3349204,17.0001916 L9.97873642,17.0001916 C9.74801042,17.0034667 9.52569942,16.9143646 9.35724642,16.7493109 C9.19471942,16.5867889 9.10284442,16.366639 9.10284442,16.1365257 C9.10284442,15.9064139 9.19471842,15.686268 9.36089942,15.520125 C9.52569442,15.3586876 9.74801042,15.2695839 9.97144042,15.2728987 L13.4712974,15.2728987 L13.4712974,1.72790255 L9.99348042,1.72747764 Z M5.75948842,5.14201304 C5.49546542,4.90824688 5.39968542,4.53799334 5.51828142,4.20256569 C5.63785042,3.87075979 5.94650742,3.64511721 6.29917142,3.63168237 C6.52821642,3.62320544 6.75022042,3.70534594 6.91752342,3.85927035 L11.2789574,7.85726164 C11.4594694,8.02090084 11.5631664,8.25343474 11.5631664,8.49758584 C11.5631664,8.74173554 11.4594714,8.97426534 11.2810044,9.13604414 L6.91637342,13.1369519 C6.74613142,13.2920343 6.52123642,13.3729607 6.29484742,13.3612948 C6.06430142,13.351122 5.84765742,13.2490658 5.69260642,13.0771625 C5.53936142,12.9070865 5.45918742,12.6830437 5.47117842,12.4503324 C5.48456942,12.2227019 5.58684942,12.008844 5.75324342,11.8589476 L8.47586542,9.36397474 L0.905287425,9.36347244 C0.438847425,9.38610604 0.0235704246,9.00760044 0.000964424562,8.54172414 C-0.0216695754,8.07528224 0.356839425,7.65999854 0.846945425,7.63681324 L8.47727942,7.63681324 L5.75948842,5.14201304 Z" id="icon-login"></path>
            </g>
        </g>
    </g>
</svg>