<?xml version="1.0" encoding="UTF-8"?>
<svg width="16px" height="16px" viewBox="0 0 16 16" version="1.1" xmlns="http://www.w3.org/2000/svg" xmlns:xlink="http://www.w3.org/1999/xlink">
    <title>4A82601C-D159-48FA-BB16-D5125985F3C1</title>
    <g id="Pages" stroke="none" stroke-width="1" fill="none" fill-rule="evenodd">
        <g id="StoragebyOwner-|-Home" transform="translate(-1020.000000, -4982.000000)" fill="#4CB964">
            <g id="social_icons" transform="translate(1020.001385, 4982.000000)">
                <g id="icon_instagram_hover" transform="translate(0.000000, 0.001385)">
                    <path d="M10.6370584,0.0197679757 L10.8168991,0.0261092528 C10.9666802,0.0318255945 11.1192374,0.0386465294 11.2970052,0.0467575538 C12.1485119,0.085595203 12.7300604,0.22084422 13.2389194,0.4186209 C13.7649901,0.623034594 14.2111308,0.896581209 14.6559061,1.34132469 C15.1006496,1.78609993 15.3741962,2.23224067 15.5786416,2.7583114 C15.7763865,3.26717034 15.9116356,3.84871889 15.9504732,4.70022561 C15.956962,4.84243979 15.9626252,4.96851925 15.9675577,5.08995056 L15.9774628,5.36017317 C15.9901049,5.75316412 15.9957815,6.18805426 15.997753,7.05915616 L15.9984117,7.49361263 L15.9984117,8.5036426 L15.9984117,8.5036426 L15.997753,8.93809298 C15.9957815,9.80918294 15.9901049,10.2440689 15.9774628,10.6370584 L15.9675577,10.9072804 C15.9626252,11.0287115 15.956962,11.154791 15.9504732,11.2970052 C15.9116356,12.1485119 15.7763865,12.7300604 15.5786416,13.2389194 C15.3741962,13.7649901 15.1006496,14.2111308 14.6559061,14.6559061 C14.2111308,15.1006496 13.7649901,15.3741962 13.2389194,15.5786416 C12.7300604,15.7763865 12.1485119,15.9116356 11.2970052,15.9504732 C11.154791,15.956962 11.0287115,15.9626252 10.9072804,15.9675577 L10.6370584,15.9774628 C10.2440689,15.9901049 9.80918294,15.9957815 8.93809298,15.997753 L8.5036426,15.9984117 L7.49361263,15.9984117 L7.49361263,15.9984117 L7.05915616,15.997753 C6.18805426,15.9957815 5.75316412,15.9901049 5.36017317,15.9774628 L5.08995056,15.9675577 C4.96851925,15.9626252 4.84243979,15.956962 4.70022561,15.9504732 C3.84871889,15.9116356 3.26717034,15.7763865 2.7583114,15.5786416 C2.23224067,15.3741962 1.78609993,15.1006496 1.34132469,14.6559061 C0.896581209,14.2111308 0.623034594,13.7649901 0.4186209,13.2389194 C0.22084422,12.7300604 0.085595203,12.1485119 0.0467575538,11.2970052 C0.0386465294,11.1192374 0.0318255945,10.9666802 0.0261092528,10.8168991 L0.0197679757,10.6370584 C0.00939496982,10.3146055 0.00371140463,9.96394612 0.000916289596,9.36726364 L3.32091125e-16,6.86569657 C0.00236378584,6.12139601 0.00809834408,5.72293405 0.0197679757,5.36017317 L0.0261092528,5.180332 C0.0318255945,5.03055056 0.0386465294,4.87799333 0.0467575538,4.70022561 C0.085595203,3.84871889 0.22084422,3.26717034 0.4186209,2.7583114 C0.623034594,2.23224067 0.896581209,1.78609993 1.34132469,1.34132469 C1.78609993,0.896581209 2.23224067,0.623034594 2.7583114,0.4186209 C3.26717034,0.22084422 3.84871889,0.085595203 4.70022561,0.0467575538 C4.87799333,0.0386465294 5.03055056,0.0318255945 5.180332,0.0261092528 L5.36017317,0.0197679757 C5.68262729,0.00939496982 6.03328966,0.00371140463 6.62997979,0.000916289596 L9.13154995,-6.70622412e-15 C9.87584056,0.00236378584 10.2742989,0.00809834408 10.6370584,0.0197679757 Z M8.71622154,1.4404801 L7.28103049,1.4404801 L7.28103049,1.4404801 L6.88639171,1.44131735 C6.1569661,1.44349865 5.76947443,1.44887474 5.41471596,1.46021633 L5.23863301,1.46639708 C5.09178455,1.47198336 4.94167215,1.47868548 4.76592888,1.48670389 C3.98593678,1.52227066 3.56234283,1.65259749 3.28044437,1.76215586 C2.90702498,1.90728101 2.64052821,2.08063729 2.36059863,2.36059863 C2.08063729,2.64052821 1.90728101,2.90702498 1.76215586,3.28044437 C1.65259749,3.56234283 1.52227066,3.98593678 1.48670389,4.76592888 C1.47868548,4.94167215 1.47198336,5.09178455 1.46639708,5.23863301 L1.46021633,5.41471596 C1.44887474,5.76947443 1.44349865,6.1569661 1.44131735,6.88639171 L1.4404801,7.28103049 L1.4404801,8.71622154 L1.4404801,8.71622154 L1.44131735,9.11085481 C1.44349865,9.84027047 1.44887474,10.2277585 1.46021633,10.5825156 L1.46639708,10.758598 C1.47198336,10.9054462 1.47868548,11.0555586 1.48670389,11.2313019 C1.52227066,12.011294 1.65259749,12.4348879 1.76215586,12.7167864 C1.90728101,13.0902058 2.08066905,13.3567026 2.36059863,13.6366321 C2.64052821,13.9165935 2.90702498,14.0899498 3.28044437,14.2350749 C3.56234283,14.3446333 3.98593678,14.4749601 4.76592888,14.5105269 C4.97679699,14.520149 5.15075862,14.5278756 5.32646683,14.5340531 L5.50418883,14.5397272 C5.86400738,14.5500217 6.28153968,14.5546611 7.05961272,14.5563586 L8.71627234,14.5567507 C9.7103151,14.5553584 10.1687537,14.5502463 10.5826001,14.5370144 L10.7586642,14.5308337 C10.905495,14.5252474 11.0555851,14.5185453 11.2313019,14.5105269 C12.011294,14.4749601 12.4348879,14.3446333 12.7167864,14.2350749 C13.0902058,14.0899498 13.3567026,13.9165935 13.6366321,13.6366321 C13.9165935,13.3567026 14.0899498,13.0902058 14.2350749,12.7167864 C14.3446333,12.4348879 14.4749601,12.011294 14.5105269,11.2313019 C14.5185453,11.0555586 14.5252474,10.9054462 14.5308337,10.758598 L14.5370144,10.5825156 C14.5491436,10.2031226 14.55445,9.78629484 14.5563226,8.95384279 L14.5567507,7.28103049 C14.5553584,6.28703925 14.5502463,5.82860084 14.5370144,5.41471596 L14.5308337,5.23863301 C14.5252474,5.09178455 14.5185453,4.94167215 14.5105269,4.76592888 C14.4749601,3.98593678 14.3446333,3.56234283 14.2350749,3.28044437 C14.0899498,2.90702498 13.9165935,2.64052821 13.6366321,2.36059863 C13.3567026,2.08063729 13.0902058,1.90728101 12.7167864,1.76215586 C12.4348879,1.65259749 12.011294,1.52227066 11.2313019,1.48670389 C11.0555586,1.47868548 10.9054462,1.47198336 10.758598,1.46639708 L10.5825156,1.46021633 C10.2277585,1.44887474 9.84027047,1.44349865 9.11085481,1.44131735 L8.71622154,1.4404801 Z M7.99863126,3.89050985 C10.267474,3.89050985 12.1067209,5.72975675 12.1067209,7.99863126 C12.1067209,10.267474 10.267474,12.1067209 7.99863126,12.1067209 C5.72975675,12.1067209 3.89050985,10.267474 3.89050985,7.99863126 C3.89050985,5.72975675 5.72975675,3.89050985 7.99863126,3.89050985 Z M7.99863126,5.33194872 C6.52584917,5.33194872 5.33194872,6.52584917 5.33194872,7.99863126 C5.33194872,9.47138159 6.52584917,10.665282 7.99863126,10.665282 C9.47138159,10.665282 10.665282,9.47138159 10.665282,7.99863126 C10.665282,6.52584917 9.47138159,5.33194872 7.99863126,5.33194872 Z M12.2690261,2.76818753 C12.7992251,2.76818753 13.2290432,3.19800567 13.2290432,3.72820468 C13.2290432,4.25840369 12.7992251,4.68819007 12.2690261,4.68819007 C11.7388588,4.68819007 11.3090407,4.25840369 11.3090407,3.72820468 C11.3090407,3.19800567 11.7388588,2.76818753 12.2690261,2.76818753 Z" id="Combined-Shape"></path>
                </g>
            </g>
        </g>
    </g>
</svg>